:FULLY-SPECIFIED
:FORCE-ALL-JOINTS-BE-3DOF
:DEGREES
306
root -1.1948 15.5564 -36.3714 15.9463 66.681 14.0782
lfemur -17.5177 15.8341 -21.5783
ltibia 56.7462 -0 0
lfoot -27.2503 28.7744 -0.00406506
ltoes -1.60039 0 0
rfemur -43.0895 -9.99244 13.6215
rtibia 76.5627 -0 0
rfoot -10.5842 -13.2309 0.211117
rtoes -17.3428 0 0
lowerback 18.0216 0.275944 -6.85612
upperback -1.22223 -0.795891 2.16781
thorax -11.1901 0.139218 6.60261
lowerneck -6.00469 2.70759 0.0796847
upperneck 4.93224 3.84843 -3.25747
head 2.83081 1.80888 -0.893501
lclavicle 3.3197e-14 3.18055e-15 0
lhumerus 18.2171 -27.1381 69.9176
lradius 35.3104 -0 0
lwrist -36.2388 0 0
lhand -21.2711 38.292 0.126269
lfingers 7.12502 -0 0
lthumb 5.11193 68.1829 0.119168
rclavicle 3.3197e-14 3.18055e-15 0
rhumerus -45.4045 25.4731 -88.4841
rradius 117.741 -0 0
rwrist -54.3176 0 0
rhand 35.8276 -13.0065 0.0276917
rfingers 7.12502 -0 0
rthumb 58.4905 -25.5933 0.629584
307
root -1.12156 15.5531 -36.3515 17.7089 68.6358 16.7218
lfemur -15.9107 14.288 -21.7721
ltibia 56.1 -0 0
lfoot -27.0823 28.7275 -0.00379163
ltoes -2.52047 0 0
rfemur -45.0118 -9.49954 13.694
rtibia 77.6639 -0 0
rfoot -10.3419 -11.5386 0.196858
rtoes -16.1795 0 0
lowerback 18.7086 0.318833 -7.71983
upperback -1.02489 -0.99027 2.0282
thorax -11.3344 0.0991213 7.00981
lowerneck -5.93265 2.26276 -0.237553
upperneck 4.85034 3.24516 -2.80769
head 2.75134 1.51889 -0.720568
lclavicle 3.3197e-14 3.18055e-15 0
lhumerus 19.307 -29.7567 70.1879
lradius 35.9526 -0 0
lwrist -34.4101 0 0
lhand -21.7271 37.7555 0.117771
lfingers 7.12502 -0 0
lthumb 4.67167 67.6584 0.111147
rclavicle 3.3197e-14 3.18055e-15 0
rhumerus -43.8156 26.9315 -88.073
rradius 119.208 -0 0
rwrist -53.2836 0 0
rhand 34.6388 -13.0516 0.0258255
rfingers 7.12502 -0 0
rthumb 57.4877 -26.8124 0.58709
308
root -1.05301 15.5503 -36.3331 19.8087 70.4777 19.6614
lfemur -14.3737 12.8102 -21.9985
ltibia 55.4801 -0 0
lfoot -26.9212 28.6825 -0.00340015
ltoes -3.40318 0 0
rfemur -46.8529 -9.02467 13.7477
rtibia 78.7205 -0 0
rfoot -10.1099 -9.91513 0.176459
rtoes -15.0635 0 0
lowerback 19.3671 0.369707 -8.54794
upperback -0.835103 -1.1763 1.89362
thorax -11.4732 0.0616184 7.40057
lowerneck -5.86123 1.83637 -0.54235
upperneck 4.76736 2.66701 -2.3756
head 2.67429 1.24091 -0.554299
lclavicle 3.3197e-14 3.18055e-15 0
lhumerus 20.3675 -32.2728 70.399
lradius 36.5687 -0 0
lwrist -32.6558 0 0
lhand -22.1645 37.2409 0.105604
lfingers 7.12502 -0 0
lthumb 4.24938 67.1553 0.0996648
rclavicle 3.3197e-14 3.18055e-15 0
rhumerus -42.2602 28.3205 -87.6303
rradius 120.615 -0 0
rwrist -52.2917 0 0
rhand 33.4982 -13.0949 0.0231544
rfingers 7.12502 -0 0
rthumb 56.5266 -27.981 0.526286
309
root -0.989864 15.5479 -36.3164 22.2544 72.1729 22.8939
lfemur -12.9284 11.4242 -22.2475
ltibia 54.8963 -0 0
lfoot -26.7695 28.6401 -0.00291581
ltoes -4.23451 0 0
rfemur -48.5843 -8.57609 13.784
rtibia 79.7155 -0 0
rfoot -9.89206 -8.38624 0.151244
rtoes -14.0124 0 0
lowerback 19.9864 0.426313 -9.32727
upperback -0.655952 -1.3511 1.76631
thorax -11.6041 0.0271643 7.76867
lowerneck -5.79192 1.43516 -0.829835
upperneck 4.68525 2.12309 -1.96805
head 2.60099 0.979319 -0.39738
lclavicle 3.3197e-14 3.18055e-15 0
lhumerus 21.3845 -34.6452 70.5517
lradius 37.1489 -0 0
lwrist -31.0035 0 0
lhand -22.5764 36.7563 0.0905532
lfingers 7.12502 -0 0
lthumb 3.85177 66.6816 0.0854611
rclavicle 3.3197e-14 3.18055e-15 0
rhumerus -40.7649 29.6183 -87.1684
rradius 121.94 -0 0
rwrist -51.3575 0 0
rhand 32.424 -13.1356 0.0198512
rfingers 7.12502 -0 0
rthumb 55.6229 -29.0805 0.451118
310
root -0.932831 15.5459 -36.3016 25.0202 73.6898 26.3814
lfemur -11.5973 10.1531 -22.5073
ltibia 54.3584 -0 0
lfoot -26.6297 28.6011 -0.00237027
ltoes -5.00046 0 0
rfemur -50.1775 -8.16201 13.8053
rtibia 80.6323 -0 0
rfoot -9.69198 -6.97769 0.122875
rtoes -13.0439 0 0
lowerback 20.5564 0.485916 -10.0447
upperback -0.490535 -1.51179 1.64851
thorax -11.7249 -0.00383509 8.10788
lowerneck -5.72628 1.06581 -1.0951
upperneck 4.60619 1.62248 -1.59198
head 2.53282 0.738477 -0.252516
lclavicle 3.3197e-14 3.18055e-15 0
lhumerus 22.3417 -36.8327 70.6498
lradius 37.6835 -0 0
lwrist -29.4813 0 0
lhand -22.9557 36.3099 0.0736041
lfingers 7.12502 -0 0
lthumb 3.48555 66.2452 0.0694655
rclavicle 3.3197e-14 3.18055e-15 0
rhumerus -39.359 30.8043 -86.7028
rradius 123.161 -0 0
rwrist -50.4967 0 0
rhand 31.4343 -13.1731 0.0161326
rfingers 7.12502 -0 0
rthumb 54.7916 -30.0924 0.366534
311
root -0.882622 15.5443 -36.2887 28.0253 75.0016 30.0312
lfemur -10.4035 9.01899 -22.7647
ltibia 53.8763 -0 0
lfoot -26.5044 28.5661 -0.00180035
ltoes -5.68701 0 0
rfemur -51.604 -7.79048 13.8146
rtibia 81.454 -0 0
rfoot -9.51328 -5.71525 0.0932737
rtoes -12.1759 0 0
lowerback 21.0666 0.5454 -10.6873
upperback -0.341974 -1.65554 1.54253
thorax -11.8333 -0.0310128 8.41199
lowerneck -5.666 0.735009 -1.3332
upperneck 4.53256 1.17422 -1.25438
head 2.47121 0.522748 -0.122431
lclavicle 3.3197e-14 3.18055e-15 0
lhumerus 23.22 -38.7943 70.7005
lradius 38.1627 -0 0
lwrist -28.1168 0 0
lhand -23.2956 35.9099 0.055901
lfingers 7.12502 -0 0
lthumb 3.1574 65.8542 0.0527581
rclavicle 3.3197e-14 3.18055e-15 0
rhumerus -38.0742 31.8586 -86.2514
rradius 124.256 -0 0
rwrist -49.7252 0 0
rhand 30.5472 -13.2066 0.01225
rfingers 7.12502 -0 0
rthumb 54.0479 -30.9983 0.278259
312
root -0.839949 15.5431 -36.2779 31.115 76.0881 33.6762
lfemur -9.37085 8.04366 -23.0056
ltibia 53.4597 -0 0
lfoot -26.3961 28.5359 -0.00124638
ltoes -6.28016 0 0
rfemur -52.8354 -7.4694 13.815
rtibia 82.164 -0 0
rfoot -9.35945 -4.62464 0.0645349
rtoes -11.4259 0 0
lowerback 21.5068 0.601393 -11.242
upperback -0.213402 -1.77951 1.45066
thorax -11.9271 -0.0540293 8.67477
lowerneck -5.61282 0.449419 -1.53918
upperneck 4.46682 0.787295 -0.962278
head 2.41759 0.336482 -0.00986104
lclavicle 3.3197e-14 3.18055e-15 0
lhumerus 23.9972 -40.4894 70.7136
lradius 38.5767 -0 0
lwrist -26.9379 0 0
lhand -23.5891 35.5644 0.0386965
lfingers 7.12502 -0 0
lthumb 2.874 65.5164 0.0365211
rclavicle 3.3197e-14 3.18055e-15 0
rhumerus -36.9442 32.7622 -85.8346
rradius 125.202 -0 0
rwrist -49.0587 0 0
rhand 29.7808 -13.2355 0.00847826
rfingers 7.12502 -0 0
rthumb 53.4066 -31.7799 0.192542
313
root -0.80552 15.5422 -36.2692 34.0518 76.9374 37.0669
lfemur -8.52388 7.24827 -23.2157
ltibia 53.1186 -0 0
lfoot -26.3075 28.5112 -0.000750213
ltoes -6.76588 0 0
rfemur -53.8432 -7.20651 13.8102
rtibia 82.7453 -0 0
rfoot -9.23391 -3.73161 0.0388237
rtoes -10.8118 0 0
lowerback 21.8669 0.650416 -11.6959
upperback -0.10796 -1.88087 1.37521
thorax -12.0039 -0.0725569 8.88998
lowerneck -5.5685 0.215694 -1.70805
upperneck 4.41153 0.470698 -0.722765
head 2.3734 0.184029 0.0824509
lclavicle 3.3197e-14 3.18055e-15 0
lhumerus 24.6484 -41.8775 70.7016
lradius 38.9157 -0 0
lwrist -25.9725 0 0
lhand -23.8294 35.2815 0.0232899
lfingers 7.12502 -0 0
lthumb 2.64199 65.2399 0.0219807
rclavicle 3.3197e-14 3.18055e-15 0
rhumerus -36.0043 33.4969 -85.4742
rradius 125.976 -0 0
rwrist -48.5129 0 0
rhand 29.1532 -13.2591 0.00510187
rfingers 7.12502 -0 0
rthumb 52.8823 -32.4192 0.115841
314
root -0.780049 15.5416 -36.2629 36.5306 77.5455 39.8856
lfemur -7.88767 6.65379 -23.3807
ltibia 52.8628 -0 0
lfoot -26.241 28.4926 -0.000352959
ltoes -7.13017 0 0
rfemur -54.5986 -7.00942 13.8035
rtibia 83.1814 -0 0
rfoot -9.14002 -3.06187 0.018258
rtoes -10.3512 0 0
lowerback 22.1367 0.689055 -12.0362
upperback -0.0287875 -1.9568 1.3185
thorax -12.0616 -0.086263 9.05141
lowerneck -5.53482 0.0404868 -1.83481
upperneck 4.36919 0.233404 -0.542935
head 2.3401 0.0697356 0.151762
lclavicle 3.3197e-14 3.18055e-15 0
lhumerus 25.1467 -42.9184 70.6782
lradius 39.17 -0 0
lwrist -25.2485 0 0
lhand -24.0096 35.0694 0.0109567
lfingers 7.12502 -0 0
lthumb 2.46804 65.0325 0.0103408
rclavicle 3.3197e-14 3.18055e-15 0
rhumerus -35.2905 34.0445 -85.1924
rradius 126.557 -0 0
rwrist -48.1035 0 0
rhand 28.6825 -13.2768 0.00239983
rfingers 7.12502 -0 0
rthumb 52.4897 -32.8982 0.0544812
315
root -0.764245 15.5413 -36.259 38.2213 77.913 41.7897
lfemur -7.48751 6.28128 -23.4877
ltibia 52.7021 -0 0
lfoot -26.1992 28.4809 -9.23881e-05
ltoes -7.35902 0 0
rfemur -55.073 -6.88566 13.798
rtibia 83.4553 -0 0
rfoot -9.08117 -2.64116 0.00477774
rtoes -10.0619 0 0
lowerback 22.3061 0.714146 -12.2498
upperback 0.0209897 -2.00446 1.28282
thorax -12.0979 -0.09479 9.15282
lowerneck -5.51346 -0.069541 -1.9145
upperneck 4.34221 0.0844033 -0.429877
head 2.31911 -0.00204342 0.195337
lclavicle 3.3197e-14 3.18055e-15 0
lhumerus 25.4643 -43.5723 70.657
lradius 39.3297 -0 0
lwrist -24.7937 0 0
lhand -24.1227 34.9362 0.00286781
lfingers 7.12502 -0 0
lthumb 2.35878 64.9023 0.00270662
rclavicle 3.3197e-14 3.18055e-15 0
rhumerus -34.838 34.387 -85.0102
rradius 126.921 -0 0
rwrist -47.8463 0 0
rhand 28.3868 -13.2879 0.000628079
rfingers 7.12502 -0 0
rthumb 52.2433 -33.1989 0.0142573
316
root 0.296253 15.3068 -35.8705 38.8334 78.0376 42.4757
lfemur -7.34858 6.15222 -23.5254
ltibia 52.6463 0 0
lfoot -26.1847 28.4769 0
ltoes -7.43842 0 0
rfemur -55.2376 -6.84273 13.7958
rtibia 83.5503 0 0
rfoot -9.06077 -2.4952 0
rtoes -9.96148 0 0
lowerback 22.3648 0.722999 -12.3239
upperback 0.0382666 -2.02099 1.27043
thorax -12.1105 -0.0977334 9.18801
lowerneck -5.50601 -0.107707 -1.94216
upperneck 4.33278 0.0327216 -0.390636
head 2.31182 -0.0269426 0.210461
lclavicle -7.69297e-14 -5.56597e-15 0
lhumerus 25.5754 -43.7991 70.6484
lradius 39.3851 0 0
lwrist -24.6359 0 0
lhand -24.162 34.89 0
lfingers 7.12502 0 0
lthumb 2.32088 64.8571 0
rclavicle -7.69297e-14 -5.56597e-15 0
rhumerus -34.6803 34.5056 -84.9461
rradius 127.048 0 0
rwrist -47.7571 0 0
rhand 28.2842 -13.2918 0
rfingers 7.12502 0 0
rthumb 52.1579 -33.3032 0
